<svg height="368pt" viewBox="0 0 368.00916 368" width="368pt" xmlns="http://www.w3.org/2000/svg"><path d="m360.003906 352.007812h-24v-251.976562l20.167969 11c1.214844.664062 2.527344.976562 3.824219.976562 2.832031 0 5.578125-1.503906 7.03125-4.167968 2.121094-3.882813.6875-8.738282-3.191406-10.855469l-176-96c-2.390626-1.304687-5.269532-1.304687-7.664063 0l-176 96c-3.878906 2.117187-5.3125 6.972656-3.191406 10.855469 2.121093 3.871094 6.976562 5.320312 10.855469 3.191406l20.167968-11v251.976562h-24c-4.414062 0-7.99999975 3.582032-7.99999975 8 0 4.414063 3.58593775 8 7.99999975 8h352c4.417969 0 8-3.585937 8-8 0-4.417968-3.582031-8-8-8zm-216-144h80v144h-80zm96 96h80v48h-80zm-56-286.890624 136 74.183593v196.707031h-80v-88c0-4.417968-3.582031-8-8-8h-96c-4.414062 0-8 3.582032-8 8v88h-80v-196.707031zm-136 286.890624h80v48h-80zm0 0"/><path d="m136.003906 160.007812h96c4.417969 0 8-3.585937 8-8v-48c0-4.417968-3.582031-8-8-8h-96c-4.414062 0-8 3.582032-8 8v48c0 4.414063 3.585938 8 8 8zm8-48h80v32h-80zm0 0"/></svg>